<svg width="1000" height="1000" viewBox="0 0 1000 1000" fill="none" xmlns="http://www.w3.org/2000/svg">
<path d="M999.81 453.82L998.423 452.873L998.203 452.723C805.95 324.8 636.228 257.542 500 76.6207C363.772 257.542 194.05 324.8 1.79684 452.723L1.57722 452.873L0.189574 453.82C0.189574 453.82 -0.0899509 474.699 0.0298455 488.171C0.0997267 495.315 3.77348 501.99 9.93301 506.19C190.426 629.211 349.426 818.335 480.513 990.585C490.067 1003.14 509.933 1003.14 519.487 990.585C650.574 818.335 809.574 629.211 990.067 506.19C996.227 501.99 999.9 495.315 999.97 488.171C1000.09 474.699 999.81 453.82 999.81 453.82ZM500 722.1C356.115 719.69 296.057 602.285 319.816 503.874C336.837 433.345 396.905 372.566 500.01 370.85C603.105 372.575 663.153 433.345 680.184 503.856C703.953 602.285 643.885 719.709 500 722.1Z" fill="url(#paint0_linear_30_29)"/>
<path d="M998.423 452.873L998.203 452.723C814.276 330.097 652.421 180.16 519.347 9.23217C509.764 -3.07739 490.237 -3.07739 480.653 9.23217C347.579 180.16 185.724 330.097 1.79697 452.723L1.57734 452.873L0.189697 453.82L1.79697 454.917C118.938 533.022 227.124 622.198 324.628 720.815C419.178 816.46 580.823 816.46 675.372 720.815C772.876 622.198 881.062 533.022 998.203 454.917L999.811 453.82L998.423 452.873ZM680.184 503.856C656.834 576.522 584.996 629.445 500 629.445C415.005 629.445 343.177 576.532 319.816 503.874C314.725 488.012 311.94 471.211 311.83 453.82C312.449 356.722 396.456 278.196 500 278.196C603.544 278.196 687.551 356.722 688.17 453.82C688.061 471.211 685.275 488.002 680.184 503.856Z" fill="url(#paint1_linear_30_29)"/>
<path d="M680.184 503.856C656.834 576.522 584.996 629.445 500 629.445C415.005 629.445 343.177 576.532 319.816 503.874C336.837 433.345 396.905 372.566 500.01 370.85C603.105 372.575 663.153 433.345 680.184 503.856Z" fill="url(#paint2_linear_30_29)"/>
<defs>
<linearGradient id="paint0_linear_30_29" x1="500" y1="999.998" x2="500" y2="76.6207" gradientUnits="userSpaceOnUse">
<stop stop-color="#7D4BFA"/>
<stop offset="1" stop-color="#003296"/>
</linearGradient>
<linearGradient id="paint1_linear_30_29" x1="500" y1="792.544" x2="500" y2="-0.00236197" gradientUnits="userSpaceOnUse">
<stop stop-color="#F2FBFE"/>
<stop offset="1" stop-color="#B9E5FB"/>
</linearGradient>
<linearGradient id="paint2_linear_30_29" x1="500" y1="370.85" x2="500" y2="629.445" gradientUnits="userSpaceOnUse">
<stop stop-color="#4B7DFA"/>
<stop offset="1" stop-color="#7D4BFA"/>
</linearGradient>
</defs>
</svg>
