<svg width="1002" height="1067" viewBox="0 0 1002 1067" fill="none" xmlns="http://www.w3.org/2000/svg">
<path d="M1001.51 484.068L1000.12 483.057L999.9 482.897C807.32 346.447 637.31 274.708 500.85 81.7275C364.39 274.708 194.38 346.447 1.79991 482.897L1.57991 483.057L0.189911 484.068C0.189911 484.068 -0.0900885 506.338 0.0299115 520.708C0.0999115 528.328 3.77991 535.447 9.94991 539.927C190.75 671.147 350.02 872.878 481.33 1056.61C490.9 1070 510.8 1070 520.37 1056.61C651.68 872.878 810.95 671.147 991.75 539.927C997.92 535.447 1001.6 528.328 1001.67 520.708C1001.79 506.338 1001.51 484.068 1001.51 484.068ZM500.85 770.228C356.72 767.658 296.56 642.428 320.36 537.458C337.41 462.228 397.58 397.398 500.86 395.568C604.13 397.408 664.28 462.228 681.34 537.438C705.15 642.427 644.98 767.678 500.85 770.228Z" fill="url(#paint0_linear_30_17)"/>
<rect x="278" y="273" width="449" height="419" fill="#DF8A00"/>
<path d="M681.34 537.438C657.95 614.948 585.99 671.398 500.85 671.398C415.71 671.398 343.76 614.958 320.36 537.458C337.41 462.228 397.58 397.398 500.86 395.568C604.13 397.408 664.28 462.228 681.34 537.438Z" fill="url(#paint1_linear_30_17)"/>
<path d="M1000.12 483.057L999.9 482.897C815.66 352.097 653.53 192.168 520.23 9.8475C510.63 -3.2825 491.07 -3.2825 481.47 9.8475C348.17 192.168 186.04 352.097 1.79991 482.897L1.57991 483.057L0.189911 484.068L1.79991 485.237C119.14 568.547 227.51 663.667 325.18 768.857C419.89 870.877 581.81 870.877 676.52 768.857C774.19 663.667 882.56 568.547 999.9 485.237L1001.51 484.068L1000.12 483.057ZM681.34 537.438C657.95 614.948 585.99 671.398 500.85 671.398C415.71 671.398 343.76 614.958 320.36 537.458C315.26 520.538 312.47 502.618 312.36 484.068C312.98 380.498 397.13 296.737 500.85 296.737C604.57 296.737 688.72 380.498 689.34 484.068C689.23 502.618 686.44 520.528 681.34 537.438Z" fill="url(#paint2_linear_30_17)"/>
<defs>
<linearGradient id="paint0_linear_30_17" x1="500.85" y1="1066.65" x2="500.85" y2="81.7275" gradientUnits="userSpaceOnUse">
<stop stop-color="#7D4BFA"/>
<stop offset="1" stop-color="#003296"/>
</linearGradient>
<linearGradient id="paint1_linear_30_17" x1="500.85" y1="395.568" x2="500.85" y2="671.398" gradientUnits="userSpaceOnUse">
<stop stop-color="#FFC400"/>
<stop offset="1" stop-color="#A8A200"/>
</linearGradient>
<linearGradient id="paint2_linear_30_17" x1="500.85" y1="845.367" x2="500.85" y2="-0.0025194" gradientUnits="userSpaceOnUse">
<stop stop-color="#F2FBFE"/>
<stop offset="1" stop-color="#B9E5FB"/>
</linearGradient>
</defs>
</svg>
