<?xml version="1.0" encoding="UTF-8"?>
<svg id="Layer_1" data-name="Layer 1" xmlns="http://www.w3.org/2000/svg" xmlns:xlink="http://www.w3.org/1999/xlink" viewBox="0 0 1100 1100">
  <defs>
    <style>
      .cls-1 {
        fill: url(#linear-gradient-2);
      }

      .cls-2 {
        fill: url(#linear-gradient-3);
      }

      .cls-3 {
        fill: url(#linear-gradient);
      }
    </style>
    <linearGradient id="linear-gradient" x1="500.85" y1="1066.65" x2="500.85" y2="81.73" gradientUnits="userSpaceOnUse">
      <stop offset="0" stop-color="#7d4bfa"/>
      <stop offset="1" stop-color="#003296"/>
    </linearGradient>
    <linearGradient id="linear-gradient-2" x1="500.85" y1="845.37" x2="500.85" y2="0" gradientUnits="userSpaceOnUse">
      <stop offset="0" stop-color="#f2fbfe"/>
      <stop offset="1" stop-color="#b9e5fb"/>
    </linearGradient>
    <linearGradient id="linear-gradient-3" x1="500.85" y1="395.57" x2="500.85" y2="671.4" gradientUnits="userSpaceOnUse">
      <stop offset="0" stop-color="#4b7dfa"/>
      <stop offset="1" stop-color="#7d4bfa"/>
    </linearGradient>
  </defs>
  <path class="cls-3" d="M1001.51,484.07l-1.39-1.01-.22-.16c-192.58-136.45-362.59-208.19-499.05-401.17C364.39,274.71,194.38,346.45,1.8,482.9l-.22.16-1.39,1.01s-.28,22.27-.16,36.64c.07,7.62,3.75,14.74,9.92,19.22,180.8,131.22,340.07,332.95,471.38,516.68,9.57,13.39,29.47,13.39,39.04,0,131.31-183.73,290.58-385.46,471.38-516.68,6.17-4.48,9.85-11.6,9.92-19.22.12-14.37-.16-36.64-.16-36.64ZM500.85,770.23c-144.13-2.57-204.29-127.8-180.49-232.77,17.05-75.23,77.22-140.06,180.5-141.89,103.27,1.84,163.42,66.66,180.48,141.87,23.81,104.99-36.36,230.24-180.49,232.79Z"/>
  <path class="cls-1" d="M1000.12,483.06l-.22-.16C815.66,352.1,653.53,192.17,520.23,9.85c-9.6-13.13-29.16-13.13-38.76,0C348.17,192.17,186.04,352.1,1.8,482.9l-.22.16-1.39,1.01,1.61,1.17c117.34,83.31,225.71,178.43,323.38,283.62,94.71,102.02,256.63,102.02,351.34,0,97.67-105.19,206.04-200.31,323.38-283.62l1.61-1.17-1.39-1.01ZM681.34,537.44c-23.39,77.51-95.35,133.96-180.49,133.96s-157.09-56.44-180.49-133.94c-5.1-16.92-7.89-34.84-8-53.39.62-103.57,84.77-187.33,188.49-187.33s187.87,83.76,188.49,187.33c-.11,18.55-2.9,36.46-8,53.37Z"/>
  <path class="cls-2" d="M681.34,537.44c-23.39,77.51-95.35,133.96-180.49,133.96s-157.09-56.44-180.49-133.94c17.05-75.23,77.22-140.06,180.5-141.89,103.27,1.84,163.42,66.66,180.48,141.87Z"/>
</svg>